<svg width="200" height="100" viewBox="0 0 200 100" fill="none" xmlns="http://www.w3.org/2000/svg">
  <rect width="200" height="100" fill="white"/>
  <rect x="20" y="20" width="2" height="60" fill="black"/>
  <rect x="25" y="20" width="1" height="60" fill="black"/>
  <rect x="30" y="20" width="3" height="60" fill="black"/>
  <rect x="36" y="20" width="2" height="60" fill="black"/>
  <rect x="42" y="20" width="4" height="60" fill="black"/>
  <rect x="48" y="20" width="1" height="60" fill="black"/>
  <rect x="52" y="20" width="3" height="60" fill="black"/>
  <rect x="58" y="20" width="2" height="60" fill="black"/>
  <rect x="64" y="20" width="1" height="60" fill="black"/>
  <rect x="68" y="20" width="4" height="60" fill="black"/>
  <rect x="76" y="20" width="2" height="60" fill="black"/>
  <rect x="82" y="20" width="3" height="60" fill="black"/>
  <rect x="88" y="20" width="1" height="60" fill="black"/>
  <rect x="92" y="20" width="2" height="60" fill="black"/>
  <rect x="98" y="20" width="4" height="60" fill="black"/>
  <rect x="106" y="20" width="1" height="60" fill="black"/>
  <rect x="110" y="20" width="3" height="60" fill="black"/>
  <rect x="116" y="20" width="2" height="60" fill="black"/>
  <rect x="122" y="20" width="1" height="60" fill="black"/>
  <rect x="126" y="20" width="4" height="60" fill="black"/>
  <rect x="134" y="20" width="2" height="60" fill="black"/>
  <rect x="140" y="20" width="3" height="60" fill="black"/>
  <rect x="146" y="20" width="1" height="60" fill="black"/>
  <rect x="150" y="20" width="2" height="60" fill="black"/>
  <rect x="156" y="20" width="4" height="60" fill="black"/>
  <rect x="164" y="20" width="1" height="60" fill="black"/>
  <rect x="168" y="20" width="3" height="60" fill="black"/>
  <rect x="174" y="20" width="2" height="60" fill="black"/>
  <rect x="180" y="20" width="1" height="60" fill="black"/>
</svg>
